<svg width="103" height="18" viewBox="0 0 103 18" fill="none" xmlns="http://www.w3.org/2000/svg">
<path d="M2.816 13H1.472V1.8H10.608V13H9.264V3.08H2.816V13ZM13.7783 12.12C12.9676 11.3947 12.5623 10.408 12.5623 9.16C12.5623 7.912 12.9676 6.93067 13.7783 6.216C14.5889 5.49067 15.5489 5.128 16.6583 5.128C17.7783 5.128 18.7383 5.49067 19.5383 6.216C20.3489 6.93067 20.7543 7.912 20.7543 9.16C20.7543 10.408 20.3489 11.3947 19.5383 12.12C18.7383 12.8347 17.7783 13.192 16.6583 13.192C15.5489 13.192 14.5889 12.8347 13.7783 12.12ZM18.6743 11.224C19.2076 10.712 19.4743 10.024 19.4743 9.16C19.4743 8.296 19.2076 7.61333 18.6743 7.112C18.1409 6.6 17.4689 6.344 16.6583 6.344C15.8476 6.344 15.1756 6.6 14.6423 7.112C14.1089 7.61333 13.8423 8.296 13.8423 9.16C13.8423 10.024 14.1089 10.712 14.6423 11.224C15.1756 11.7253 15.8476 11.976 16.6583 11.976C17.4689 11.976 18.1409 11.7253 18.6743 11.224ZM22.8671 15.08H21.6191V11.848H22.6431C23.5498 10.248 23.9871 8.072 23.9551 5.32H29.6831V11.848H30.8031V15.08H29.5551V13H22.8671V15.08ZM25.1871 6.472C25.1338 8.57333 24.7498 10.3653 24.0351 11.848H28.4031V6.472H25.1871ZM33.6641 6.6C34.5281 5.61867 35.5628 5.128 36.7681 5.128C37.8668 5.128 38.7788 5.512 39.5041 6.28C40.2401 7.048 40.6081 8.008 40.6081 9.16C40.6081 10.312 40.2401 11.272 39.5041 12.04C38.7788 12.808 37.8668 13.192 36.7681 13.192C35.5521 13.192 34.5601 12.744 33.7921 11.848V16.52H32.5121V5.32H33.6641V6.6ZM38.5441 11.224C39.0668 10.7013 39.3281 10.0133 39.3281 9.16C39.3281 8.30667 39.0668 7.61867 38.5441 7.096C38.0321 6.57333 37.3921 6.312 36.6241 6.312C35.9735 6.312 35.3975 6.49333 34.8961 6.856C34.3948 7.21867 34.0268 7.66667 33.7921 8.2V10.12C34.0268 10.6533 34.3948 11.1013 34.8961 11.464C35.3975 11.8267 35.9735 12.008 36.6241 12.008C37.3921 12.008 38.0321 11.7467 38.5441 11.224ZM43.1376 12.12C42.327 11.3947 41.9216 10.408 41.9216 9.16C41.9216 7.912 42.327 6.93067 43.1376 6.216C43.9483 5.49067 44.9083 5.128 46.0176 5.128C47.1376 5.128 48.0976 5.49067 48.8976 6.216C49.7083 6.93067 50.1136 7.912 50.1136 9.16C50.1136 10.408 49.7083 11.3947 48.8976 12.12C48.0976 12.8347 47.1376 13.192 46.0176 13.192C44.9083 13.192 43.9483 12.8347 43.1376 12.12ZM48.0336 11.224C48.567 10.712 48.8336 10.024 48.8336 9.16C48.8336 8.296 48.567 7.61333 48.0336 7.112C47.5003 6.6 46.8283 6.344 46.0176 6.344C45.207 6.344 44.535 6.6 44.0016 7.112C43.4683 7.61333 43.2016 8.296 43.2016 9.16C43.2016 10.024 43.4683 10.712 44.0016 11.224C44.535 11.7253 45.207 11.976 46.0176 11.976C46.8283 11.976 47.5003 11.7253 48.0336 11.224ZM59.4536 9.384C59.4536 10.568 59.091 11.5013 58.3656 12.184C57.651 12.856 56.707 13.192 55.5336 13.192C54.339 13.192 53.3736 12.7973 52.6376 12.008C51.9123 11.2187 51.5496 10.1147 51.5496 8.696C51.5496 7.45867 51.763 6.392 52.1896 5.496C52.6163 4.6 53.1923 3.928 53.9176 3.48C54.4083 3.18133 54.915 2.94667 55.4376 2.776C55.971 2.59467 56.4083 2.48267 56.7496 2.44C57.1016 2.39733 57.4643 2.312 57.8376 2.184C58.211 2.04533 58.5203 1.85333 58.7656 1.608V2.952C58.467 3.16533 58.099 3.32533 57.6616 3.432C57.2243 3.528 56.739 3.64533 56.2056 3.784C55.6723 3.92267 55.1603 4.136 54.6696 4.424C54.1896 4.712 53.8163 5.07467 53.5496 5.512C53.283 5.94933 53.0483 6.472 52.8456 7.08C53.123 6.65333 53.5176 6.30667 54.0296 6.04C54.5416 5.77333 55.091 5.64 55.6776 5.64C56.7123 5.64 57.5976 5.98667 58.3336 6.68C59.0803 7.37333 59.4536 8.27467 59.4536 9.384ZM52.8296 9.416C52.8296 10.152 53.075 10.7653 53.5656 11.256C54.0563 11.736 54.7016 11.976 55.5016 11.976C56.323 11.976 56.9736 11.736 57.4536 11.256C57.9336 10.776 58.1736 10.1627 58.1736 9.416C58.1736 8.66933 57.9336 8.056 57.4536 7.576C56.9736 7.096 56.323 6.856 55.5016 6.856C54.7336 6.856 54.0936 7.11733 53.5816 7.64C53.0803 8.152 52.8296 8.744 52.8296 9.416ZM62.589 13H61.309V5.32H62.589V8.568H67.037V5.32H68.317V13H67.037V9.752H62.589V13ZM70.156 9.16C70.156 7.90133 70.54 6.91467 71.308 6.2C72.0867 5.48533 72.9773 5.128 73.98 5.128C74.9187 5.128 75.692 5.36267 76.3 5.832C76.9187 6.30133 77.324 6.88267 77.516 7.576C77.708 8.25867 77.7187 8.97333 77.548 9.72H71.436C71.5107 10.4773 71.8467 11.048 72.444 11.432C73.0413 11.816 73.7613 12.008 74.604 12.008C75.5427 12.008 76.3853 11.8 77.132 11.384V12.632C76.4173 13.0053 75.5107 13.192 74.412 13.192C73.196 13.192 72.1827 12.8453 71.372 12.152C70.5613 11.4587 70.156 10.4613 70.156 9.16ZM76.412 8.6C76.444 8.376 76.428 8.14133 76.364 7.896C76.3 7.65067 76.1827 7.40533 76.012 7.16C75.852 6.91467 75.6013 6.712 75.26 6.552C74.9187 6.392 74.5187 6.312 74.06 6.312C73.3667 6.312 72.764 6.51467 72.252 6.92C71.7507 7.32533 71.4787 7.88533 71.436 8.6H76.412ZM78.8904 9.16C78.8904 7.90133 79.2744 6.91467 80.0424 6.2C80.821 5.48533 81.7117 5.128 82.7144 5.128C83.653 5.128 84.4264 5.36267 85.0344 5.832C85.653 6.30133 86.0584 6.88267 86.2504 7.576C86.4424 8.25867 86.453 8.97333 86.2824 9.72H80.1704C80.245 10.4773 80.581 11.048 81.1784 11.432C81.7757 11.816 82.4957 12.008 83.3384 12.008C84.277 12.008 85.1197 11.8 85.8664 11.384V12.632C85.1517 13.0053 84.245 13.192 83.1464 13.192C81.9304 13.192 80.917 12.8453 80.1064 12.152C79.2957 11.4587 78.8904 10.4613 78.8904 9.16ZM85.1464 8.6C85.1784 8.376 85.1624 8.14133 85.0984 7.896C85.0344 7.65067 84.917 7.40533 84.7464 7.16C84.5864 6.91467 84.3357 6.712 83.9944 6.552C83.653 6.392 83.253 6.312 82.7944 6.312C82.101 6.312 81.4984 6.51467 80.9864 6.92C80.485 7.32533 80.213 7.88533 80.1704 8.6H85.1464Z" fill="#F0BF5F"/>
<path d="M93.5 1.00002L101.278 8.7782L93.5 16.5564" stroke="#F0BF5F" stroke-width="2"/>
</svg>
