<svg width="25" height="25" viewBox="0 0 25 25" fill="none" xmlns="http://www.w3.org/2000/svg">
<g clip-path="url(#clip0_370726_802)">
<path d="M17.1779 11.7843C16.3343 11.7843 15.6442 12.4489 15.6442 13.2925C15.6442 14.136 16.3343 14.8262 17.1523 14.8262C17.9959 14.8262 18.6605 14.136 18.6605 13.318C18.6861 12.4489 18.0215 11.7843 17.1779 11.7843ZM17.1779 14.0594C16.7433 14.0594 16.411 13.727 16.411 13.2925C16.411 12.8579 16.7433 12.5256 17.1779 12.5256C17.6125 12.5256 17.9448 12.8835 17.9448 13.2925C17.9448 13.727 17.5869 14.0594 17.1779 14.0594Z" fill="#CC9933"/>
<path d="M7.79654 9.58586C5.77712 9.5603 4.01331 11.2474 4.06444 13.3946C4.09 15.3885 5.75155 17.1012 7.84767 17.0756C9.89265 17.0501 11.5542 15.3885 11.5542 13.3435C11.5542 11.273 9.89265 9.58586 7.79654 9.58586ZM7.84767 15.6186C6.49286 15.6697 5.39368 14.5961 5.39368 13.2924C5.39368 11.9632 6.49286 10.9407 7.71985 10.9662C8.99797 10.9662 10.046 11.9887 10.046 13.2924C10.0716 14.5961 9.0491 15.5674 7.84767 15.6186Z" fill="#CC9933"/>
<path d="M12.5 0C5.59815 0 0 5.59815 0 12.5C0 19.4018 5.59815 25 12.5 25C19.4018 25 25 19.4018 25 12.5C25 5.59815 19.4018 0 12.5 0ZM19.683 17.3568C18.9161 17.8425 18.0726 18.0726 17.1779 18.0726C16.7945 18.0726 16.411 18.0215 16.0532 17.9192C15.1585 17.6891 14.3916 17.229 13.7525 16.5644C13.6759 16.4877 13.5992 16.3855 13.4969 16.2832C13.1646 16.7945 12.8323 17.2801 12.5 17.7914C12.1677 17.2801 11.8354 16.7945 11.5031 16.3088C11.4775 16.3088 11.4775 16.3343 11.4775 16.3343L11.4519 16.3599C10.6851 17.2801 9.71369 17.817 8.53782 18.0215C7.8732 18.1237 7.23414 18.0981 6.59509 17.9192C5.7004 17.6636 4.93353 17.2035 4.29447 16.4877C3.68098 15.7975 3.3231 15.0051 3.16973 14.0849C3.01636 13.2413 3.19529 12.4233 3.24642 12.2188C3.39979 11.6309 3.62985 11.1196 3.98773 10.6339C4.01329 10.6084 4.01329 10.5317 4.01329 10.5061C3.88548 9.99488 3.62985 9.53475 3.34867 9.07463C3.27198 8.97238 3.19529 8.87013 3.11861 8.74232V8.71676C3.14417 8.71676 3.14417 8.71676 3.16973 8.71676C4.11554 8.71676 5.06134 8.71676 6.00715 8.71676C6.05828 8.71676 6.08384 8.6912 6.13496 8.66564C6.79958 8.23108 7.51533 7.89876 8.25664 7.64314C8.79345 7.4642 9.33026 7.31083 9.89263 7.20858C10.4294 7.10633 10.9662 7.02964 11.5286 7.00408C12.8579 6.90183 13.9315 7.02964 14.6472 7.13189C15.184 7.20858 15.6953 7.33639 16.2065 7.48977C17.1012 7.77095 17.9192 8.15439 18.7116 8.64007C18.7628 8.66564 18.8394 8.6912 18.9161 8.6912C19.8364 8.6912 20.7566 8.6912 21.6769 8.6912C21.7536 8.6912 21.8302 8.6912 21.9069 8.6912C21.9069 8.71676 21.9069 8.71676 21.9069 8.71676C21.8558 8.79345 21.8302 8.84457 21.7791 8.92126C21.4724 9.40694 21.1912 9.89263 21.0378 10.455C21.0122 10.5061 21.0122 10.5572 21.0634 10.6339C21.8814 11.8098 22.137 13.1135 21.8047 14.5194C21.4468 15.7208 20.7566 16.6667 19.683 17.3568Z" fill="#CC9933"/>
<path d="M7.71985 11.7843C6.90185 11.7843 6.21167 12.4745 6.21167 13.2925C6.21167 14.136 6.90185 14.8007 7.74541 14.8007C8.56341 14.8007 9.25359 14.1105 9.25359 13.2669C9.25359 12.4489 8.58897 11.7843 7.71985 11.7843ZM7.74541 14.0849C7.31085 14.0849 6.95298 13.7526 6.95298 13.2925C6.95298 12.8579 7.28529 12.5256 7.71985 12.5256C8.15441 12.5256 8.48672 12.8579 8.51228 13.2925C8.53784 13.727 8.17997 14.0594 7.74541 14.0849Z" fill="#CC9933"/>
<path d="M17.1011 9.61164C15.0562 9.66276 13.4457 11.2988 13.4202 13.3437C13.4202 15.4143 15.1073 17.127 17.1778 17.1014C19.2484 17.1014 20.9355 15.4399 20.9355 13.3437C20.9355 11.1965 19.1717 9.56051 17.1011 9.61164ZM17.2801 15.6188C15.9253 15.6699 14.8517 14.5963 14.8517 13.2926C14.8517 11.9634 15.9508 10.9409 17.1778 10.9664C18.4559 10.9664 19.504 11.9889 19.504 13.2926C19.504 14.5707 18.4815 15.5677 17.2801 15.6188Z" fill="#CC9933"/>
<path d="M13.9826 9.86723C14.8006 9.10035 15.7975 8.71692 16.9223 8.61467C15.593 8.02674 14.1871 7.77111 12.7301 7.74555C11.0941 7.71999 9.48364 7.95005 7.97546 8.58911C9.12577 8.6658 10.1227 9.04923 10.9663 9.8161C11.8098 10.583 12.2955 11.5543 12.4744 12.6791C12.6789 11.5799 13.1646 10.6341 13.9826 9.86723Z" fill="#CC9933"/>
</g>
<defs>
<clipPath id="clip0_370726_802">
<rect width="25" height="25" fill="white"/>
</clipPath>
</defs>
</svg>
